<svg xmlns="http://www.w3.org/2000/svg" width="18.929" height="18.963" viewBox="0 0 18.929 18.963">
  <path id="Icon_feather-phone" data-name="Icon feather-phone" d="M20.1,15.7v2.553a1.7,1.7,0,0,1-1.855,1.7,16.844,16.844,0,0,1-7.345-2.613,16.6,16.6,0,0,1-5.107-5.107A16.844,16.844,0,0,1,3.175,4.855,1.7,1.7,0,0,1,4.868,3H7.422a1.7,1.7,0,0,1,1.7,1.464,10.928,10.928,0,0,0,.6,2.392,1.7,1.7,0,0,1-.383,1.8L8.256,9.732a13.618,13.618,0,0,0,5.107,5.107l1.081-1.081a1.7,1.7,0,0,1,1.8-.383,10.928,10.928,0,0,0,2.392.6A1.7,1.7,0,0,1,20.1,15.7Z" transform="translate(-2.167 -2)" fill="none" stroke="#f57d20" stroke-linecap="round" stroke-linejoin="round" stroke-width="2"/>
</svg>
